<svg width="28" height="28" viewBox="0 0 28 28" fill="none" xmlns="http://www.w3.org/2000/svg">
<path id="Vector" fill-rule="evenodd" clip-rule="evenodd" d="M2.82021 7.07886C2.8449 8.32831 2.16503 10.0173 1.28104 10.8996C0.460761 11.7207 0 12.8338 0 13.9944C0 15.155 0.460761 16.2682 1.28104 17.0892C2.15351 17.9584 2.79552 19.4663 2.82021 20.6977C2.84326 21.7874 3.26962 22.8706 4.10093 23.7003C4.86791 24.4688 5.89393 24.9237 6.97844 24.9761C8.28057 25.0419 9.986 25.7991 10.9079 26.721C11.7289 27.5408 12.8416 28.0012 14.0018 28.0012C15.162 28.0012 16.2748 27.5408 17.0958 26.721C18.0177 25.7991 19.7231 25.0419 21.0252 24.9761C22.1098 24.9237 23.1358 24.4688 23.9028 23.7003C24.7023 22.9018 25.1609 21.8242 25.1818 20.6944C25.2065 19.4663 25.8403 17.9683 26.7111 17.0991C27.5345 16.2783 27.9981 15.164 28 14.0014C28.0018 12.8388 27.5418 11.723 26.721 10.8996C25.8386 10.0189 25.1571 8.32831 25.1835 7.08051C25.1959 6.49137 25.0888 5.90582 24.8687 5.35921C24.6485 4.81259 24.32 4.31624 23.9028 3.9001C23.4704 3.46657 22.9515 3.12891 22.38 2.90911C21.8085 2.6893 21.1972 2.59227 20.5857 2.62432C19.4103 2.68358 17.9271 2.114 17.0958 1.28104C16.2748 0.460761 15.1616 0 14.001 0C12.8404 0 11.7273 0.460761 10.9062 1.28104C10.0765 2.11236 8.59169 2.68358 7.41633 2.62432C6.80513 2.5925 6.19408 2.68965 5.62289 2.90945C5.05169 3.12925 4.53314 3.46678 4.10093 3.9001C3.68392 4.31605 3.35546 4.81213 3.13535 5.35845C2.91524 5.90476 2.80804 6.49 2.82021 7.07886ZM18.9988 8.4386C19.1879 8.54352 19.3544 8.68466 19.489 8.85397C19.6235 9.02327 19.7233 9.21743 19.7828 9.42533C19.8423 9.63323 19.8602 9.85082 19.8355 10.0657C19.8109 10.2805 19.7442 10.4884 19.6392 10.6774L15.0826 18.8786C14.9645 19.102 14.7967 19.2952 14.592 19.4433C14.2946 19.6585 13.9337 19.7681 13.5669 19.7546C13.2 19.7412 12.8481 19.6055 12.5672 19.3692L8.02541 15.7361C7.85658 15.601 7.716 15.4339 7.61173 15.2445C7.50745 15.0551 7.4415 14.8469 7.41766 14.632C7.39381 14.4171 7.41253 14.1996 7.47274 13.9919C7.53296 13.7842 7.6335 13.5904 7.76861 13.4216C7.90372 13.2527 8.07076 13.1122 8.2602 13.0079C8.44964 12.9036 8.65776 12.8377 8.87268 12.8138C9.0876 12.79 9.30512 12.8087 9.51281 12.8689C9.7205 12.9291 9.91429 13.0297 10.0831 13.1648L13.1335 15.606L16.76 9.07732C16.8651 8.88837 17.0063 8.72197 17.1757 8.58761C17.345 8.45325 17.5392 8.35357 17.7471 8.29426C17.955 8.23495 18.1725 8.21717 18.3873 8.24194C18.6021 8.2667 18.8099 8.33353 18.9988 8.4386Z" fill="#0D99FF"/>
</svg>
